# xmcd
#
# Track frame offsets:
#	150
#	15550
#	30540
#	47273
#	60619
#	73533
#	89039
#	104173
#	120161
#	142155
#	156501
#	169977
#	185514
#	198893
#	213133
#	229440
#	256052
#	275135
#	291745
#	308320
#	326621
#	342244
#
# Disc length: 4795 seconds
#
# Revision: 0
# Processed by: cddbd v1.5.2PL0 Copyright (c) Steve Scherf et al.
# Submitted via: EasyCDDAExtractor 16.0.9.1
#
DISCID=4b12b916
DTITLE=Various Artist - Viva Martini Hits Vol.14
DYEAR=2003
DGENRE=Dance, Pop
TTITLE0=Before Four - Feel Free (TP Sanyo)
TTITLE1=Mandy and Randy - Nothing's Gonna Stop Us Now
TTITLE2=Modern Talking - TV Makes The Superstar
TTITLE3=Daniel K. - You Drive Me Crazy
TTITLE4=Shania Twain - Up
TTITLE5=Bro'sis - Oh No
TTITLE6=In-Ingrid - In-Tango
TTITLE7=Christofield - Around The World
TTITLE8=Madonna - American Life
TTITLE9=Kate Ryan - Libertine
TTITLE10=Junior Senior - Move Your Feet
TTITLE11=C.C. Catch - Shake Your Head 2003
TTITLE12=Novaspace - Paradise
TTITLE13=Panjabi Mc - Jogi
TTITLE14=Groove Coverage - The End
TTITLE15=Whigfield - Saturday Night 2003
TTITLE16=Alizee - J'en Ai Marre!
TTITLE17=Nena and Kim Wilde - Anyplace, Anywhere, Anytime
TTITLE18=Avril Lavigne - I'm With You
TTITLE19=Dean Barton - It's Hard To Understand
TTITLE20=Dave Gahon - Dirty Sticky Floors
TTITLE21=Reamonn - Star
EXTD=
EXTT0=
EXTT1=
EXTT2=
EXTT3=
EXTT4=
EXTT5=
EXTT6=
EXTT7=
EXTT8=
EXTT9=
EXTT10=
EXTT11=
EXTT12=
EXTT13=
EXTT14=
EXTT15=
EXTT16=
EXTT17=
EXTT18=
EXTT19=
EXTT20=
EXTT21=
PLAYORDER=
